<?xml version="1.0" encoding="iso-8859-1"?>
<!-- Generator: Adobe Illustrator 19.0.0, SVG Export Plug-In . SVG Version: 6.00 Build 0)  -->
<svg xmlns="http://www.w3.org/2000/svg" xmlns:xlink="http://www.w3.org/1999/xlink" version="1.1" id="Layer_1" x="0px" y="0px" viewBox="0 0 431.5 431.5" style="enable-background:new 0 0 431.5 431.5;" xml:space="preserve" width="512px" height="512px">
<g>
	<g>
		<g>
			<path d="M346,242.659c-10.766,0-21.038,2.14-30.433,5.992l-33.972-65.189c-0.337-0.647-3.095-8.303-9.095-8.303h-27     c-4.418,0-8,3.582-8,8c0,4.419,3.582,8,8,8h22.063l13.81,26.5h-97.46l-6.094-19.5H188.5c4.418,0,8-3.581,8-8c0-4.418-3.582-8-8-8     h-49c-4.418,0-8,3.582-8,8c0,4.419,3.582,8,8,8h21.556l7.888,25.242l-37.489,37.489c-13.889-11.386-31.636-18.231-50.955-18.231     c-44.388,0-80.5,36.112-80.5,80.5s36.112,80.5,80.5,80.5c41.344,0,75.493-31.335,79.984-71.5h11.102     c3.43,14.067,14.706,25.088,28.914,28.145v10.855h-13c-4.418,0-8,3.582-8,8c0,4.418,3.582,8,8,8h21c4.418,0,8-3.582,8-8v-18.855     c17.123-3.685,30-18.936,30-37.145c0-8.711-2.954-16.742-7.903-23.158l53.046-62.633l9.793,18.793     c-21.645,14.445-35.937,39.081-35.937,66.999c0,44.388,36.112,80.5,80.5,80.5s80.5-36.112,80.5-80.5S390.388,242.659,346,242.659     z M80.5,387.659c-35.565,0-64.5-28.935-64.5-64.5s28.935-64.5,64.5-64.5c14.905,0,28.634,5.096,39.568,13.618l-45.225,45.225     c-3.124,3.124-3.124,8.189,0,11.314c1.563,1.562,3.609,2.343,5.657,2.343c0.338,0,0.676-0.029,1.012-0.072     c1.175,0.678,2.534,1.072,3.988,1.072h58.859C139.965,363.478,113.01,387.659,80.5,387.659z M98.814,316.159l32.568-32.568     c7.169,9.199,11.909,20.375,13.231,32.568H98.814z M171.157,316.159h-10.481c-1.437-16.592-7.913-31.763-17.908-43.955     l31.563-31.563l15.457,49.464C180.228,295.539,173.246,304.995,171.157,316.159z M216.5,343.647v-17.488c0-4.418-3.582-8-8-8     c-4.418,0-8,3.582-8,8v17.488c-8.186-3.208-14-11.179-14-20.488c0-12.131,9.869-22,22-22s22,9.869,22,22     C230.5,332.468,224.685,340.439,216.5,343.647z M226.398,289.649c-5.337-2.862-11.43-4.49-17.897-4.49     c-1.161,0-2.308,0.061-3.443,0.163l-16.145-51.663h84.905L226.398,289.649z M346,387.659c-35.565,0-64.5-28.935-64.5-64.5     c0-21.756,10.838-41.016,27.387-52.704l32.519,62.401c1.427,2.737,4.215,4.304,7.102,4.304c1.245,0,2.51-0.292,3.69-0.907     c3.918-2.042,5.439-6.873,3.397-10.792L323,262.913c7.149-2.739,14.9-4.254,23.001-4.254c35.565,0,64.5,28.935,64.5,64.5     S381.565,387.659,346,387.659z" fill="#0A97B7"/>
			<path d="M55.15,95.839h114.11c4.139,0,7.594-3.156,7.968-7.277c0.114-1.268,0.173-2.521,0.173-3.723c0-22.056-17.944-40-40-40     c-4.652,0-9.23,0.802-13.542,2.351C115.771,35.224,102.2,27.84,87.4,27.84c-24.262,0-44,19.738-44,44     c0,6.869,1.544,13.452,4.589,19.566C49.342,94.122,52.115,95.839,55.15,95.839z M87.4,43.84c11.213,0,21.32,6.664,25.749,16.977     c0.921,2.145,2.732,3.78,4.96,4.477c2.227,0.699,4.648,0.389,6.629-0.849c3.776-2.359,8.155-3.606,12.662-3.606     c11.52,0,21.17,8.158,23.477,19H60.558c-0.77-2.573-1.157-5.249-1.157-8C59.4,56.4,71.961,43.84,87.4,43.84z" fill="#0A97B7"/>
			<path d="M391.5,104.159c-4.652,0-9.229,0.801-13.542,2.351C369.871,94.544,356.3,87.159,341.5,87.159c-24.262,0-44,19.738-44,44     c0,6.869,1.544,13.452,4.589,19.566c1.353,2.717,4.126,4.434,7.161,4.434h114.11c4.139,0,7.594-3.156,7.968-7.277     c0.114-1.261,0.172-2.513,0.172-3.723C431.5,122.103,413.556,104.159,391.5,104.159z M314.657,139.16v-0.001     c-0.77-2.573-1.157-5.249-1.157-8c0-15.439,12.56-28,28-28c11.213,0,21.32,6.664,25.749,16.977     c0.921,2.145,2.732,3.78,4.96,4.478c2.227,0.699,4.648,0.388,6.628-0.849c3.777-2.359,8.156-3.605,12.663-3.605     c11.52,0,21.17,8.158,23.477,19H314.657z" fill="#0A97B7"/>
		</g>
	</g>
</g>
<g>
</g>
<g>
</g>
<g>
</g>
<g>
</g>
<g>
</g>
<g>
</g>
<g>
</g>
<g>
</g>
<g>
</g>
<g>
</g>
<g>
</g>
<g>
</g>
<g>
</g>
<g>
</g>
<g>
</g>
</svg>
