<?xml version="1.0" encoding="iso-8859-1"?>
<!-- Generator: Adobe Illustrator 19.0.0, SVG Export Plug-In . SVG Version: 6.00 Build 0)  -->
<svg xmlns="http://www.w3.org/2000/svg" xmlns:xlink="http://www.w3.org/1999/xlink" version="1.1" id="Capa_1" x="0px" y="0px" viewBox="0 0 510.596 510.596" style="enable-background:new 0 0 510.596 510.596;" xml:space="preserve" width="512px" height="512px">
<g>
	<path d="M479.298,159.596h-33.002c-15.462,0-28.529,11.07-31.071,26.322l-6.28,37.678H262.798V8.632   c0.329-2.164-0.284-4.452-1.875-6.193c-2.795-3.057-7.54-3.269-10.596-0.474c-3.202,2.927-15.385,13.081-37.736,20.842   c-21.463,7.452-44.433,10.049-68.272,7.72c-0.061-0.006-0.121-0.004-0.182-0.009c-0.159-0.012-0.319-0.021-0.477-0.023   c-0.101-0.001-0.201,0.002-0.302,0.005c-0.141,0.004-0.282,0.01-0.422,0.023c-0.118,0.01-0.235,0.025-0.352,0.041   c-0.119,0.016-0.237,0.033-0.355,0.055c-0.132,0.024-0.262,0.053-0.392,0.084c-0.101,0.025-0.202,0.05-0.302,0.078   c-0.136,0.039-0.27,0.082-0.403,0.129c-0.094,0.033-0.187,0.066-0.28,0.103c-0.13,0.051-0.257,0.106-0.384,0.164   c-0.095,0.044-0.19,0.089-0.283,0.136c-0.116,0.059-0.229,0.122-0.342,0.187c-0.1,0.058-0.199,0.117-0.296,0.18   c-0.1,0.064-0.197,0.13-0.293,0.198c-0.104,0.074-0.207,0.15-0.308,0.229c-0.083,0.066-0.165,0.134-0.246,0.203   c-0.104,0.09-0.206,0.181-0.306,0.277c-0.073,0.07-0.144,0.142-0.214,0.216c-0.096,0.1-0.19,0.202-0.281,0.308   c-0.069,0.081-0.135,0.164-0.201,0.247c-0.082,0.104-0.161,0.208-0.237,0.317c-0.07,0.098-0.135,0.199-0.2,0.301   c-0.063,0.1-0.125,0.199-0.184,0.302c-0.069,0.121-0.133,0.246-0.195,0.371c-0.046,0.092-0.092,0.183-0.134,0.278   c-0.063,0.141-0.119,0.285-0.174,0.43c-0.023,0.061-0.051,0.117-0.072,0.178c-2.883,8.328-20.156,51.142-77.236,76.204   c-2.927,1.285-4.613,4.213-4.47,7.225c-0.028,0.632,0.016,1.277,0.156,1.925c6.479,29.807,0.626,74.647-27.251,103.635   c-0.799,0.437-1.525,1.011-2.127,1.722c-1.425,1.682-2.038,3.906-1.675,6.081l12.658,75.946   c2.542,15.252,15.609,26.322,31.071,26.322h34.085l107.5,64.5l-76.371,45.822c-7.241-8.164-17.8-13.322-29.545-13.322   c-21.78,0-39.5,17.72-39.5,39.5s17.72,39.5,39.5,39.5s39.5-17.72,39.5-39.5c0-4.656-0.816-9.125-2.302-13.277l83.295-49.977   l82.485,49.491c-1.599,4.288-2.478,8.924-2.478,13.763c0,21.78,17.72,39.5,39.5,39.5s39.5-17.72,39.5-39.5s-17.72-39.5-39.5-39.5   c-11.56,0-21.976,4.992-29.206,12.934l-75.723-45.434l107.5-64.5h33.098c15.462,0,28.529-11.07,31.071-26.322l12.658-75.946   l7.324-43.946c1.332-7.989,8.176-13.787,16.275-13.787h33.002c4.142,0,7.5-3.358,7.5-7.5S483.44,159.596,479.298,159.596z    M103.298,495.596c-13.509,0-24.5-10.991-24.5-24.5s10.991-24.5,24.5-24.5s24.5,10.991,24.5,24.5S116.807,495.596,103.298,495.596z    M343.298,446.596c13.509,0,24.5,10.991,24.5,24.5s-10.991,24.5-24.5,24.5s-24.5-10.991-24.5-24.5S329.789,446.596,343.298,446.596   z M403.611,255.596H42.985l-2.833-17h366.293L403.611,255.596z M247.798,22.52v180.587L157.263,46.295   c1.204,0.024,2.405,0.043,3.593,0.043C199.257,46.338,229.487,34.142,247.798,22.52z M144.613,54.385l89.855,155.634   L78.295,119.153C111.553,101.325,133.2,76.354,144.613,54.385z M71.872,132.77l156.106,90.827H48.041   C68.043,196.245,74.444,161.548,71.872,132.77z M223.791,390.35l-92.922-55.753h185.845L223.791,390.35z M378.967,319.596H67.629   c-8.099,0-14.944-5.799-16.275-13.787l-5.869-35.213h355.626l-5.869,35.213C393.911,313.798,387.066,319.596,378.967,319.596z" fill="#0A97B7"/>
	<path d="M103.298,463.596c-1.97,0-3.91,0.8-5.3,2.2c-1.4,1.39-2.2,3.33-2.2,5.3c0,1.97,0.8,3.91,2.2,5.3c1.39,1.4,3.33,2.2,5.3,2.2   c1.97,0,3.91-0.8,5.3-2.2c1.4-1.39,2.2-3.33,2.2-5.3c0-1.97-0.8-3.91-2.2-5.3C107.208,464.396,105.268,463.596,103.298,463.596z" fill="#0A97B7"/>
	<path d="M343.298,478.596c1.97,0,3.91-0.8,5.3-2.2c1.4-1.39,2.2-3.33,2.2-5.3c0-1.97-0.8-3.91-2.2-5.3c-1.39-1.4-3.33-2.2-5.3-2.2   c-1.97,0-3.91,0.8-5.3,2.2c-1.4,1.39-2.2,3.33-2.2,5.3c0,1.97,0.8,3.91,2.2,5.3C339.388,477.796,341.328,478.596,343.298,478.596z" fill="#0A97B7"/>
</g>
<g>
</g>
<g>
</g>
<g>
</g>
<g>
</g>
<g>
</g>
<g>
</g>
<g>
</g>
<g>
</g>
<g>
</g>
<g>
</g>
<g>
</g>
<g>
</g>
<g>
</g>
<g>
</g>
<g>
</g>
</svg>
