<?xml version="1.0" encoding="iso-8859-1"?>
<svg xmlns="http://www.w3.org/2000/svg" xmlns:xlink="http://www.w3.org/1999/xlink" version="1.1" viewBox="0 0 463 463" enable-background="new 0 0 463 463" width="512px" height="512px">
  <g>
    <path d="m439.999,108.772c-27.752-29.806-57.434-44.448-90.704-44.757-19.157-37.538-64.763-64.015-117.849-64.015-52.213,0-98.512,25.729-117.909,64.017-33.201,0.357-62.831,15-90.536,44.756-5.647,6.065-5.444,15.444 0.463,21.351l31.812,31.813c2.938,2.938 6.79,4.513 10.787,4.513 1.294,0 2.604-0.165 3.901-0.502 5.394-1.401 9.53-5.46 11.065-10.859 2.867-10.084 9.395-23.968 24.161-37.168 5.117,29.67 25.78,55.35 55.078,71.412-0.001,0.005-0.003,0.009-0.005,0.014l-1.828,6.094-86.947,42.459c-13.626,6.654-19.297,23.153-12.643,36.778 4.763,9.753 14.568,15.43 24.754,15.43 4.045,0 8.151-0.896 12.024-2.787l41.296-20.167-24.657,82.19c-0.681,2.271-0.249,4.73 1.167,6.632 1.415,1.902 3.646,3.023 6.017,3.023h32.5v68.5c0,19.575 15.925,35.5 35.5,35.5s35.5-15.925 35.5-35.5v-68.499h17v68.5c0,19.575 15.925,35.5 35.5,35.5s35.5-15.925 35.5-35.5v-68.5h32.5c2.371,0 4.602-1.121 6.017-3.023 1.416-1.902 1.848-4.361 1.167-6.632l-24.678-82.26 41.438,20.237c3.874,1.892 7.978,2.787 12.023,2.787 10.185,0 19.992-5.678 24.754-15.43 6.654-13.625 0.983-30.124-12.643-36.778l-87.088-42.53-1.807-6.025c-0.001-0.005-0.003-0.009-0.005-0.014 29.326-16.077 50-41.791 55.093-71.496 14.832,13.225 21.382,27.146 24.255,37.252 1.535,5.398 5.671,9.458 11.064,10.859 1.298,0.337 2.607,0.502 3.901,0.502 3.997,0 7.848-1.574 10.787-4.513l31.813-31.813c5.907-5.907 6.11-15.286 0.462-21.351zm-100.435-29.753c-19.181-3.191-40.846-12.799-60.74-27.107-15.913-11.445-29.032-24.887-35.947-36.457 46.168,3.68 84.173,29.415 96.687,63.564zm-119.565-63.546c-6.918,11.567-20.03,25-35.934,36.438-19.888,14.305-41.547,23.912-60.725,27.105 12.775-34.933 51.208-59.916 96.659-63.543zm-153.399,135.512c-0.028,0.1-0.104,0.364-0.408,0.443-0.157,0.04-0.203,0.008-0.31-0.099l-31.813-31.813c-0.173-0.173-0.162-0.447-0.091-0.523 30.927-33.216 58.783-38.844 73.509-39.798-1.968,6.658-3.124,13.485-3.442,20.373-23.732,17.425-33.47,37.436-37.445,51.417zm117.347,48.561c0.012,6.075 2.493,11.695 6.827,16.454h-22.849l6.04-20.132c3.25,1.338 6.58,2.565 9.982,3.678zm-30.121,63.454h36.942c-3.095,5.119-5.247,10.866-6.224,17h-35.818l5.1-17zm-9.6,32h40.318c0.977,6.134 3.13,11.881 6.224,17h-51.642l5.1-17zm54.72-7.5c0-17.92 14.58-32.5 32.5-32.5s32.5,14.58 32.5,32.5-14.58,32.5-32.5,32.5-32.5-14.58-32.5-32.5zm79.402,7.5h40.318l5.1,17h-51.642c3.094-5.119 5.246-10.866 6.224-17zm0-15c-0.977-6.134-3.13-11.881-6.224-17h36.942l5.1,17h-35.818zm26.218-32h-46.773c-7.545-5.049-16.607-8-26.347-8s-18.802,2.951-26.347,8h-46.773l5.1-17h136.04l5.1,17zm-73.12-32c-12.874,0-27.021-4.969-31.241-12.148 10.001,2.053 20.466,3.148 31.241,3.148s21.241-1.095 31.241-3.148c-4.221,7.179-18.368,12.148-31.241,12.148zm-142.405,57.843c-3,1.465-6.392,1.675-9.549,0.589-3.157-1.085-5.703-3.335-7.168-6.335-1.465-3-1.674-6.392-0.589-9.549 1.085-3.157 3.335-5.703 6.335-7.168l74.496-36.381-9.779,32.598-53.746,26.246zm118.905,153.657c0,11.304-9.196,20.5-20.5,20.5s-20.5-9.196-20.5-20.5v-68.5h41v68.5zm88,0c0,11.304-9.196,20.5-20.5,20.5s-20.5-9.196-20.5-20.5v-68.5h41v68.5zm-166.42-83.5l5.113-17.044c0.265,0.028 0.534,0.045 0.807,0.045h69.653c7.545,5.049 16.607,8 26.347,8s18.802-2.951 26.347-8h69.653c0.273,0 0.541-0.016 0.807-0.045l5.113,17.044h-203.84zm255.416-92.622c3,1.465 5.25,4.011 6.335,7.168 1.085,3.158 0.876,6.549-0.589,9.549-1.465,3-4.011,5.25-7.168,6.335-3.158,1.085-6.548,0.876-9.549-0.589l-53.888-26.317-9.779-32.598 74.638,36.452zm-89.977-35.378h-22.849c4.334-4.759 6.815-10.379 6.827-16.454 3.402-1.113 6.732-2.339 9.982-3.677l6.04,20.131zm-63.519-24c-62.033,0-112.5-39.701-112.5-88.5 0-2.96 0.196-5.912 0.568-8.844 22.997-2.427 49.485-13.431 73.31-30.568 16.842-12.114 30.393-25.772 38.62-38.601 8.227,12.829 21.779,26.487 38.622,38.601 23.829,17.138 50.322,28.142 73.32,30.568 0.369,2.909 0.56,5.859 0.56,8.843 0,48.8-50.468,88.501-112.5,88.501zm197.484-72.483l-31.813,31.813c-0.107,0.106-0.154,0.139-0.31,0.099-0.305-0.079-0.38-0.344-0.408-0.443-3.982-14.004-13.744-34.057-37.56-51.501-0.329-6.962-1.508-13.75-3.457-20.297 14.692,0.929 42.62,6.493 73.638,39.806 0.073,0.076 0.083,0.35-0.09,0.523z" fill="#0A97B7"/>
    <path d="m190.946,111.5v-8c0-4.142-3.358-7.5-7.5-7.5s-7.5,3.358-7.5,7.5v8c0,4.142 3.358,7.5 7.5,7.5s7.5-3.358 7.5-7.5z" fill="#0A97B7"/>
    <path d="m279.446,96c-4.142,0-7.5,3.358-7.5,7.5v8c0,4.142 3.358,7.5 7.5,7.5s7.5-3.358 7.5-7.5v-8c0-4.142-3.358-7.5-7.5-7.5z" fill="#0A97B7"/>
    <path d="m272.165,138.03c-2.929-2.929-7.678-2.929-10.606,0-2.586,2.586-2.885,6.589-0.905,9.507-7.621,7.932-18.18,12.463-29.209,12.463-11.006,0-21.545-4.512-29.162-12.414 2.018-2.922 1.733-6.955-0.868-9.556-2.929-2.929-7.678-2.929-10.606,0l-8,8c-2.929,2.929-2.929,7.678 0,10.606 1.464,1.464 3.384,2.197 5.303,2.197 1.167,0 2.333-0.275 3.398-0.816 10.434,10.81 24.865,16.983 39.936,16.983 15.083,0 29.525-6.183 39.961-17.01 1.08,0.561 2.267,0.843 3.455,0.843 1.919,0 3.839-0.732 5.303-2.197 2.929-2.929 2.929-7.678 0-10.606l-8-8z" fill="#0A97B7"/>
    <path d="m234.142,300.803c1.464,1.464 3.384,2.197 5.303,2.197s3.839-0.732 5.303-2.197c2.929-2.929 2.929-7.678 0-10.606l-2.697-2.697 2.697-2.697c2.929-2.929 2.929-7.678 0-10.606-2.929-2.929-7.678-2.929-10.606,0l-2.697,2.697-2.697-2.697c-2.929-2.929-7.678-2.929-10.606,0-2.929,2.929-2.929,7.678 0,10.606l2.697,2.697-2.697,2.697c-2.929,2.929-2.929,7.678 0,10.606 1.464,1.464 3.384,2.197 5.303,2.197s3.839-0.732 5.303-2.197l2.697-2.697 2.697,2.697z" fill="#0A97B7"/>
  </g>
</svg>
