<svg width="8" height="14" viewBox="0 0 8 14" fill="none" xmlns="http://www.w3.org/2000/svg">
<path d="M0.401165 13.1158L0.512599 12.0684L1.58237 11.8678C1.76067 11.8232 1.88696 11.7638 1.96125 11.6895C2.0504 11.6152 2.10983 11.474 2.13955 11.266L3.27618 2.17296C3.29104 1.97981 3.26132 1.85351 3.18703 1.79408C3.11274 1.71979 2.99388 1.66036 2.83044 1.61579L1.80524 1.4152L1.91668 0.367719H7.62213L7.5107 1.4152L6.44092 1.61579C6.26263 1.66036 6.12891 1.72722 6.03976 1.81637C5.96547 1.89066 5.91347 2.02438 5.88375 2.21753L4.74712 11.3106C4.73226 11.5038 4.75455 11.6375 4.81398 11.7118C4.88827 11.7861 5.01456 11.8381 5.19286 11.8678L6.21805 12.0684L6.10662 13.1158H0.401165Z" fill="#4b5563"/>
</svg>
