<svg width="25" height="24" viewBox="0 0 25 24" fill="none" xmlns="http://www.w3.org/2000/svg">
<path fill-rule="evenodd" clip-rule="evenodd" d="M12.4997 6.04213C14.6164 3.39796 18.1364 3.56758 19.9698 5.15374C21.9171 6.83731 22.0512 10.2036 20.1106 13.5665C18.828 15.9395 15.5562 18.3343 12.8133 19.9162C12.6196 20.0279 12.3799 20.0279 12.1862 19.9162C9.44501 18.3351 6.17567 15.9429 4.89476 13.5766C2.94825 10.207 3.08154 6.83815 5.02973 5.15374C6.86307 3.56758 10.3831 3.39796 12.4997 6.04213ZM11.9557 7.47211C10.4275 4.82794 7.37946 4.78428 5.85125 6.10678C5.10098 6.75586 4.74555 7.73829 4.74555 8.87438C4.74555 10.1154 5.16469 11.5303 5.98454 12.9477C5.98789 12.9536 5.99041 12.9586 5.99376 12.9645C7.13552 15.0805 10.0159 17.1763 12.4997 18.6416C14.9836 17.1763 17.864 15.0805 19.0057 12.9645C19.0091 12.9586 19.0116 12.9536 19.0149 12.9477C19.8348 11.5303 20.2539 10.1154 20.2539 8.87438C20.2539 7.73829 19.8985 6.75586 19.1482 6.10678C17.62 4.78428 14.572 4.82794 13.0438 7.47211C12.9315 7.66692 12.7244 7.78699 12.4997 7.78699C12.2751 7.78699 12.068 7.66692 11.9557 7.47211Z" fill="white"/>
<path fill-rule="evenodd" clip-rule="evenodd" d="M12.3044 6.19847C10.2841 3.67463 6.92879 3.84127 5.19315 5.34291L5.19309 5.34297C3.37857 6.9118 3.19075 10.1273 5.11109 13.4517L5.11455 13.4577L5.11447 13.4577C5.73257 14.5995 6.84177 15.7649 8.15203 16.8483C9.45884 17.9288 10.9493 18.9144 12.311 19.6998C12.4273 19.7669 12.5719 19.7669 12.6882 19.6998C14.0507 18.914 15.5422 17.9275 16.85 16.8455C18.1613 15.7606 19.2716 14.5929 19.8905 13.4478L19.8938 13.4417L19.8939 13.4417C21.8083 10.1242 21.6199 6.91109 19.8061 5.34297L19.806 5.34291C18.0704 3.84127 14.7151 3.67463 12.6948 6.19847L12.4996 6.44228L12.3044 6.19847ZM12.4996 5.654C10.2706 3.13275 6.74141 3.3423 4.86607 4.96473L12.4996 5.654ZM12.4996 5.654C14.7286 3.13272 18.2579 3.3423 20.1332 4.96479C22.2134 6.7633 22.2938 10.2812 20.3287 13.6886C19.6648 14.9154 18.4987 16.1304 17.1688 17.2307C15.8343 18.3348 14.3184 19.3368 12.938 20.1329L12.8131 19.9164L12.938 20.1329C12.6671 20.2892 12.3321 20.2892 12.0612 20.1329L12.0612 20.1329C10.6816 19.3372 9.16682 18.3361 7.83342 17.2336C6.50459 16.1349 5.3395 14.9222 4.67641 13.6988C2.70551 10.2848 2.78481 6.76426 4.866 4.96479M5.68751 5.91785C7.32884 4.49745 10.5616 4.5608 12.172 7.34712L12.1721 7.34734C12.24 7.46507 12.3647 7.5371 12.4996 7.5371C12.6345 7.5371 12.7592 7.46507 12.8271 7.34734L12.8272 7.34712C14.4376 4.5608 17.6704 4.49745 19.3117 5.91785C20.1317 6.62728 20.5038 7.68811 20.5038 8.87449C20.5038 10.1693 20.0676 11.6266 19.2319 13.0718C19.2317 13.0721 19.2313 13.0729 19.2304 13.0746L19.2302 13.075C19.229 13.0771 19.227 13.081 19.2244 13.0855C18.6311 14.1841 17.5978 15.2606 16.4153 16.2397C15.2288 17.2223 13.876 18.12 12.6266 18.857L12.4996 18.932L12.3726 18.857C11.1232 18.12 9.77034 17.2223 8.58386 16.2397C7.40143 15.2605 6.36812 14.1841 5.77475 13.0854C5.77206 13.0807 5.76989 13.0766 5.7688 13.0746C5.76789 13.0729 5.76747 13.0721 5.76731 13.0718C4.9316 11.6266 4.4954 10.1693 4.4954 8.87449C4.4954 7.68811 4.86748 6.62728 5.68751 5.91785ZM5.68751 5.91785L5.8511 6.10689L5.68751 5.91785ZM11.7391 7.59732C10.293 5.09531 7.42978 5.07133 6.0147 6.29593L6.01467 6.29596C5.33416 6.88468 4.9954 7.78869 4.9954 8.87449C4.9954 10.0615 5.39725 11.4334 6.2008 12.8226L6.20154 12.8239C6.20481 12.8297 6.20756 12.8348 6.20896 12.8374L6.2092 12.8378C6.21041 12.8401 6.21074 12.8407 6.21079 12.8408C6.21079 12.8408 6.2108 12.8408 6.2108 12.8408L6.21369 12.8458L6.21363 12.8459C6.76219 13.8625 7.73938 14.8912 8.90277 15.8546C10.0232 16.7825 11.3014 17.6377 12.4996 18.3511C13.6978 17.6377 14.976 16.7825 16.0964 15.8546C17.2598 14.8912 18.237 13.8625 18.7856 12.8459L18.7884 12.8407L18.7884 12.8407C18.7883 12.8409 18.7884 12.8408 18.79 12.8378L18.7902 12.8374C18.7916 12.8348 18.7944 12.8297 18.7976 12.8239L18.7984 12.8226C19.6019 11.4334 20.0038 10.0615 20.0038 8.87449C20.0038 7.78869 19.665 6.88468 18.9845 6.29596L18.9845 6.29593C17.5694 5.07133 14.7061 5.09531 13.2601 7.59732C13.1033 7.86907 12.8139 8.0371 12.4996 8.0371C12.1853 8.0371 11.8959 7.86907 11.7391 7.59732Z" fill="white"/>
</svg>
