<svg width="25" height="24" viewBox="0 0 25 24" fill="none" xmlns="http://www.w3.org/2000/svg">
<path d="M10.7222 4V5.77778H6.27778V18.2222H18.7222V13.7778H20.5V19.1111C20.5 19.3469 20.4064 19.573 20.2397 19.7397C20.073 19.9064 19.8469 20 19.6111 20H5.38889C5.15314 20 4.92705 19.9064 4.76035 19.7397C4.59365 19.573 4.5 19.3469 4.5 19.1111V4.88889C4.5 4.65314 4.59365 4.42705 4.76035 4.26035C4.92705 4.09365 5.15314 4 5.38889 4H10.7222ZM17.5729 8.184L12.5 13.2569L11.2431 12L16.316 6.92711L13.3889 4H20.5V11.1111L17.5729 8.184Z" fill="white"/>
</svg>
